<svg xmlns="http://www.w3.org/2000/svg" width="1200" height="760" viewBox="0 0 1200 760" role="img" aria-labelledby="title desc">
  <title id="title">Push Block Circuit Grid</title>
  <desc id="desc">An M x N wall/floor matrix where pushing tiles forms one continuous powered route.</desc>
  <rect width="1200" height="760" fill="#140c0b"/>
  <rect x="42" y="42" width="1116" height="676" rx="34" fill="#211514" stroke="#5a3a34" stroke-width="3"/>
  <text x="82" y="106" fill="#f4e7d8" font-family="Inter, Arial, sans-serif" font-size="42" font-weight="800">Push Block Circuit Grid</text>
  <text x="84" y="148" fill="#b99f8d" font-family="Inter, Arial, sans-serif" font-size="22">An M x N wall/floor matrix where pushing tiles forms one continuous powered route.</text>
  
  <defs>
    <marker id="arrow" markerWidth="10" markerHeight="10" refX="7" refY="3" orient="auto"><path d="M0,0 L8,3 L0,6 Z" fill="#f5b84b"/></marker>
  </defs>
  <rect x="160" y="210" width="72" height="56" rx="8" fill="#2b1a18" stroke="#f5b84b" stroke-width="5"/><rect x="252" y="210" width="72" height="56" rx="8" fill="#2b1a18" stroke="#f5b84b" stroke-width="5"/><rect x="344" y="210" width="72" height="56" rx="8" fill="#372622" stroke="#5a3a34" stroke-width="3"/><rect x="436" y="210" width="72" height="56" rx="8" fill="#372622" stroke="#5a3a34" stroke-width="3"/><rect x="528" y="210" width="72" height="56" rx="8" fill="#372622" stroke="#5a3a34" stroke-width="3"/><rect x="620" y="210" width="72" height="56" rx="8" fill="#372622" stroke="#5a3a34" stroke-width="3"/><rect x="712" y="210" width="72" height="56" rx="8" fill="#372622" stroke="#5a3a34" stroke-width="3"/><rect x="160" y="286" width="72" height="56" rx="8" fill="#372622" stroke="#5a3a34" stroke-width="3"/><rect x="252" y="286" width="72" height="56" rx="8" fill="#2b1a18" stroke="#f5b84b" stroke-width="5"/><rect x="344" y="286" width="72" height="56" rx="8" fill="#372622" stroke="#5a3a34" stroke-width="3"/><rect x="436" y="286" width="72" height="56" rx="8" fill="#372622" stroke="#5a3a34" stroke-width="3"/><rect x="528" y="286" width="72" height="56" rx="8" fill="#372622" stroke="#5a3a34" stroke-width="3"/><rect x="620" y="286" width="72" height="56" rx="8" fill="#372622" stroke="#5a3a34" stroke-width="3"/><rect x="712" y="286" width="72" height="56" rx="8" fill="#372622" stroke="#5a3a34" stroke-width="3"/><rect x="160" y="362" width="72" height="56" rx="8" fill="#372622" stroke="#5a3a34" stroke-width="3"/><rect x="252" y="362" width="72" height="56" rx="8" fill="#2b1a18" stroke="#f5b84b" stroke-width="5"/><rect x="344" y="362" width="72" height="56" rx="8" fill="#2b1a18" stroke="#f5b84b" stroke-width="5"/><rect x="436" y="362" width="72" height="56" rx="8" fill="#2b1a18" stroke="#f5b84b" stroke-width="5"/><rect x="528" y="362" width="72" height="56" rx="8" fill="#372622" stroke="#5a3a34" stroke-width="3"/><rect x="620" y="362" width="72" height="56" rx="8" fill="#372622" stroke="#5a3a34" stroke-width="3"/><rect x="712" y="362" width="72" height="56" rx="8" fill="#372622" stroke="#5a3a34" stroke-width="3"/><rect x="160" y="438" width="72" height="56" rx="8" fill="#372622" stroke="#5a3a34" stroke-width="3"/><rect x="252" y="438" width="72" height="56" rx="8" fill="#372622" stroke="#5a3a34" stroke-width="3"/><rect x="344" y="438" width="72" height="56" rx="8" fill="#372622" stroke="#5a3a34" stroke-width="3"/><rect x="436" y="438" width="72" height="56" rx="8" fill="#2b1a18" stroke="#f5b84b" stroke-width="5"/><rect x="528" y="438" width="72" height="56" rx="8" fill="#2b1a18" stroke="#f5b84b" stroke-width="5"/><rect x="620" y="438" width="72" height="56" rx="8" fill="#372622" stroke="#5a3a34" stroke-width="3"/><rect x="712" y="438" width="72" height="56" rx="8" fill="#372622" stroke="#5a3a34" stroke-width="3"/><rect x="160" y="514" width="72" height="56" rx="8" fill="#372622" stroke="#5a3a34" stroke-width="3"/><rect x="252" y="514" width="72" height="56" rx="8" fill="#372622" stroke="#5a3a34" stroke-width="3"/><rect x="344" y="514" width="72" height="56" rx="8" fill="#372622" stroke="#5a3a34" stroke-width="3"/><rect x="436" y="514" width="72" height="56" rx="8" fill="#372622" stroke="#5a3a34" stroke-width="3"/><rect x="528" y="514" width="72" height="56" rx="8" fill="#2b1a18" stroke="#f5b84b" stroke-width="5"/><rect x="620" y="514" width="72" height="56" rx="8" fill="#2b1a18" stroke="#f5b84b" stroke-width="5"/><rect x="712" y="514" width="72" height="56" rx="8" fill="#2b1a18" stroke="#f5b84b" stroke-width="5"/>
  <polyline points="196,238 288,238 288,314 288,390 380,390 472,390 472,466 564,466 564,542 656,542 748,542" fill="none" stroke="#f5b84b" stroke-width="10" stroke-linecap="round" stroke-linejoin="round" marker-end="url(#arrow)"/>
  <circle cx="118" cy="238" r="28" fill="#78d37f"/><text x="118" y="246" fill="#140c0b" font-family="Inter, Arial, sans-serif" font-size="24" font-weight="800" text-anchor="middle">S</text>
  <circle cx="824" cy="542" r="28" fill="#69c7ff"/><text x="824" y="550" fill="#140c0b" font-family="Inter, Arial, sans-serif" font-size="24" font-weight="800" text-anchor="middle">T</text>
  <text x="84" y="694" fill="#b99f8d" font-family="Inter, Arial, sans-serif" font-size="21">Solver model: route search + toggle/press effects; BFS/A* over bitmasks, with graph connectivity checks.</text>
</svg>
